<svg width="50" height="50" viewBox="0 0 50 50" fill="none" xmlns="http://www.w3.org/2000/svg">
<rect x="0.75" y="0.75" width="48.5" height="48.5" rx="24.25" stroke="#F04B42" stroke-width="1.5"/>
<path d="M19.2274 30.5H17.2716V25.1452C17.2716 24.9975 17.2737 24.816 17.2779 24.6008C17.2821 24.3814 17.2885 24.1578 17.2969 23.9299C17.3054 23.6978 17.3138 23.4889 17.3222 23.3033C17.2758 23.3581 17.1809 23.4531 17.0374 23.5881C16.8981 23.7189 16.7673 23.8371 16.645 23.9426L15.5816 24.7971L14.6385 23.6198L17.6197 21.2462H19.2274V30.5ZM25 21.1259C25.5317 21.1259 26.0212 21.2082 26.4685 21.3728C26.92 21.5373 27.2808 21.7863 27.5508 22.1196C27.8209 22.4488 27.9559 22.8623 27.9559 23.3602C27.9559 23.7316 27.8821 24.0565 27.7344 24.335C27.5909 24.6135 27.3947 24.8582 27.1457 25.0692C26.8968 25.276 26.614 25.4574 26.2976 25.6136C26.6267 25.7866 26.939 25.9891 27.2343 26.2212C27.5297 26.4491 27.7702 26.717 27.9559 27.0251C28.1458 27.3331 28.2407 27.6918 28.2407 28.1011C28.2407 28.6159 28.1036 29.0632 27.8293 29.443C27.555 29.8185 27.1753 30.1097 26.69 30.3164C26.2047 30.5232 25.6414 30.6266 25 30.6266C24.308 30.6266 23.7193 30.5274 23.234 30.3291C22.7488 30.1308 22.3796 29.8481 22.1264 29.4809C21.8732 29.1096 21.7466 28.6665 21.7466 28.1517C21.7466 27.7298 21.8247 27.3626 21.9808 27.0504C22.1411 26.7381 22.3563 26.4702 22.6264 26.2465C22.8965 26.0187 23.194 25.8246 23.5189 25.6642C23.2446 25.4912 22.9935 25.295 22.7657 25.0756C22.542 24.8561 22.3627 24.6051 22.2276 24.3223C22.0968 24.0396 22.0314 23.7147 22.0314 23.3476C22.0314 22.8581 22.1686 22.4488 22.4429 22.1196C22.7214 21.7905 23.0864 21.5437 23.5379 21.3791C23.9894 21.2103 24.4768 21.1259 25 21.1259ZM23.5569 28.0378C23.5569 28.3712 23.675 28.6475 23.9113 28.867C24.1518 29.0822 24.5063 29.1898 24.9747 29.1898C25.4599 29.1898 25.8228 29.0864 26.0634 28.8796C26.3039 28.6686 26.4242 28.3923 26.4242 28.0505C26.4242 27.8142 26.3545 27.6074 26.2153 27.4302C26.0802 27.2529 25.9093 27.0947 25.7026 26.9554C25.4958 26.812 25.2869 26.679 25.076 26.5567L24.9051 26.4681C24.635 26.5904 24.3987 26.7276 24.1961 26.8795C23.9978 27.0314 23.8417 27.2023 23.7278 27.3922C23.6138 27.5821 23.5569 27.7973 23.5569 28.0378ZM24.9873 22.5564C24.6666 22.5564 24.4008 22.6387 24.1898 22.8032C23.9788 22.9678 23.8733 23.1999 23.8733 23.4995C23.8733 23.7105 23.924 23.8961 24.0252 24.0565C24.1307 24.2126 24.2679 24.3498 24.4367 24.4679C24.6097 24.5861 24.7975 24.6958 25 24.7971C25.1941 24.7042 25.3756 24.6008 25.5443 24.4869C25.7131 24.373 25.8503 24.2358 25.9558 24.0755C26.0613 23.9151 26.114 23.7231 26.114 23.4995C26.114 23.1999 26.0064 22.9678 25.7912 22.8032C25.5802 22.6387 25.3123 22.5564 24.9873 22.5564ZM33.1019 25.2401H35.5514V26.6263H33.1019V29.0632H31.7157V26.6263H29.2661V25.2401H31.7157V22.7716H33.1019V25.2401Z" fill="#F04B42"/>
</svg>
